<svg width="17" height="15" viewBox="0 0 17 15" fill="none" xmlns="http://www.w3.org/2000/svg">
<path d="M8.5 14.9933C7.95175 14.5169 7.3321 14.0213 6.67675 13.4941H6.66825C4.36051 11.645 1.74507 9.55276 0.589918 7.0457C0.210409 6.24754 0.00928776 5.37915 9.69506e-06 4.49866C-0.00252482 3.29051 0.491973 2.13234 1.37175 1.28592C2.25153 0.439505 3.44233 -0.0237223 4.67501 0.000936424C5.67854 0.00248964 6.66046 0.286693 7.5038 0.819688C7.87437 1.05538 8.20966 1.34047 8.5 1.66676C8.79196 1.34175 9.12734 1.05682 9.49705 0.819688C10.34 0.286587 11.3217 0.00236782 12.325 0.000936424C13.5577 -0.0237223 14.7485 0.439505 15.6282 1.28592C16.508 2.13234 17.0025 3.29051 17 4.49866C16.9913 5.38056 16.7902 6.25043 16.4101 7.04986C15.2549 9.55693 12.6403 11.6484 10.3326 13.4941L10.3241 13.5008C9.6679 14.0247 9.0491 14.5202 8.50085 15L8.5 14.9933ZM4.67501 1.66676C3.88324 1.65705 3.11957 1.95398 2.55001 2.49301C2.00124 3.02121 1.69454 3.74491 1.69994 4.49866C1.70964 5.14042 1.85797 5.77289 2.13521 6.35438C2.6805 7.43609 3.41625 8.41505 4.30866 9.24625C5.15101 10.0792 6.12001 10.8854 6.9581 11.5634C7.19015 11.7508 7.42645 11.9399 7.66275 12.129L7.8115 12.2481C8.03845 12.4296 8.27305 12.6179 8.5 12.8028L8.51105 12.7928L8.51615 12.7886H8.52125L8.5289 12.7828H8.53315H8.5374L8.5527 12.7703L8.58755 12.7428L8.5935 12.7378L8.60285 12.7312H8.60795L8.6156 12.7245L9.18 12.2706L9.3279 12.1514C9.56675 11.9607 9.80305 11.7716 10.0351 11.5842C10.8732 10.9062 11.843 10.1008 12.6854 9.26374C13.5779 8.43296 14.3137 7.45425 14.8588 6.37271C15.1411 5.78617 15.2915 5.14708 15.3 4.49866C15.3035 3.74724 14.997 3.02631 14.45 2.49967C13.8815 1.95821 13.1177 1.65883 12.325 1.66676C11.3576 1.6587 10.4328 2.05604 9.7835 2.75871L8.5 4.20797L7.2165 2.75871C6.56716 2.05604 5.64237 1.6587 4.67501 1.66676Z" fill="#515151"/>
</svg>
